<?xml version="1.0" encoding="UTF-8" standalone="no"?>
<svg
   xmlns:dc="http://purl.org/dc/elements/1.1/"
   xmlns:cc="http://creativecommons.org/ns#"
   xmlns:rdf="http://www.w3.org/1999/02/22-rdf-syntax-ns#"
   xmlns:svg="http://www.w3.org/2000/svg"
   xmlns="http://www.w3.org/2000/svg"
   xmlns:sodipodi="http://sodipodi.sourceforge.net/DTD/sodipodi-0.dtd"
   xmlns:inkscape="http://www.inkscape.org/namespaces/inkscape"
   viewBox="0 0 48 38"
   width="48"
   height="38"
   version="1.1"
   id="svg6"
   sodipodi:docname="youtube.svg"
   inkscape:version="1.0.2 (e86c870879, 2021-01-15)">
  <metadata
     id="metadata12">
    <rdf:RDF>
      <cc:Work
         rdf:about="">
        <dc:format>image/svg+xml</dc:format>
        <dc:type
           rdf:resource="http://purl.org/dc/dcmitype/StillImage" />
        <dc:title></dc:title>
      </cc:Work>
    </rdf:RDF>
  </metadata>
  <defs
     id="defs10" />
  <sodipodi:namedview
     pagecolor="#ffffff"
     bordercolor="#666666"
     borderopacity="1"
     objecttolerance="10"
     gridtolerance="10"
     guidetolerance="10"
     inkscape:pageopacity="0"
     inkscape:pageshadow="2"
     inkscape:window-width="1920"
     inkscape:window-height="1019"
     id="namedview8"
     showgrid="false"
     inkscape:zoom="8.71875"
     inkscape:cx="1.204272"
     inkscape:cy="27.709534"
     inkscape:window-x="0"
     inkscape:window-y="0"
     inkscape:window-maximized="1"
     inkscape:current-layer="svg6" />
  <path
     fill="#ff3d00"
     d="m 43.15,28.9 c -0.4,2.1 -2.1,3.7 -4.2,4 -3.3,0.5 -8.8,1.1 -15,1.1 -6.1,0 -11.6,-0.6 -15,-1.1 -2.1,-0.3 -3.8,-1.9 -4.2,-4 -0.4,-2.3 -0.8,-5.7 -0.8,-9.9 0,-4.2 0.4,-7.6 0.8,-9.9 0.4,-2.1 2.1,-3.7 4.2,-4 3.3,-0.5 8.8,-1.1 15,-1.1 6.2,0 11.6,0.6 15,1.1 2.1,0.3 3.8,1.9 4.2,4 0.4,2.3 0.9,5.7 0.9,9.9 -0.1,4.2 -0.5,7.6 -0.9,9.9 z"
     id="path2" />
  <path
     fill="#ffffff"
     d="M 19.95,26 V 12 l 12,7 z"
     id="path4" />
</svg>
